<svg xmlns="http://www.w3.org/2000/svg" width="16" height="16" viewBox="0 0 16 16" fill="none">
<path fill-rule="evenodd" clip-rule="evenodd" d="M6.75736 0C7.55301 0 8.31607 0.31607 8.87868 0.87868L13.1213 5.12132C13.6839 5.68393 14 6.44699 14 7.24264V16H2V0H6.75736ZM12.8847 6.57331C12.9603 6.78622 13 7.01238 13 7.24264V15H3V1H6.75736L6.93321 1.00774C7.10252 1.02268 7.26827 1.05906 7.42668 1.11532C7.76758 1.36063 8 1.75975 8 2.23608V6.00001H11.7639C12.2403 6.00001 12.6394 6.23242 12.8847 6.57331Z" fill="rgb(255, 255, 255)"/>
<g opacity="0.4">
<path d="M4 2H7V4H4V2Z" fill="rgb(255, 255, 255)"/>
<path d="M12 7H4V8H12V7Z" fill="rgb(255, 255, 255)"/>
<path d="M12 11H4V12H12V11Z" fill="rgb(255, 255, 255)"/>
<path d="M4 9H12V10H4V9Z" fill="rgb(255, 255, 255)"/>
<path d="M12 13H4V14H12V13Z" fill="rgb(255, 255, 255)"/>
<path d="M7 5H4V6H7V5Z" fill="rgb(255, 255, 255)"/>
</g>
</svg>
